<svg xmlns="http://www.w3.org/2000/svg" version="1.1" xmlns:xlink="http://www.w3.org/1999/xlink" xmlns:svgjs="http://svgjs.dev/svgjs" width="1500" height="1500" viewBox="0 0 1500 1500"><rect width="1500" height="1500" fill="#000000"></rect><g transform="matrix(0.6666666666666666,0,0,0.6666666666666666,249.39393939393938,438.58569500674764)"><svg viewBox="0 0 396 247" data-background-color="#344e41" preserveAspectRatio="xMidYMid meet" height="935" width="1500" xmlns="http://www.w3.org/2000/svg" xmlns:xlink="http://www.w3.org/1999/xlink"><g id="tight-bounds" transform="matrix(1,0,0,1,0.2400000000000091,-0.09999999999999432)"><svg viewBox="0 0 395.52 247.2" height="247.2" width="395.52"><g><svg></svg></g><g><svg viewBox="0 0 395.52 247.2" height="247.2" width="395.52"><g transform="matrix(1,0,0,1,93.22463429076357,47.215199999999996)"><svg viewBox="0 0 209.07073141847283 152.7696" height="152.7696" width="209.07073141847283"><g><svg viewBox="0 0 209.07073141847283 152.7696" height="152.7696" width="209.07073141847283"><g><svg viewBox="0 0 244.43135999999998 178.6078847158833" height="152.7696" width="209.07073141847283"><g><svg viewBox="0 0 244.43135999999998 81.05733155971896" height="81.05733155971896" width="244.43135999999998"><g id="textblocktransform"><svg viewBox="0 0 244.43135999999998 81.05733155971896" height="81.05733155971896" width="244.43135999999998" id="textblock"><g><svg viewBox="0 0 244.43135999999998 81.05733155971896" height="81.05733155971896" width="244.43135999999998"><g transform="matrix(1,0,0,1,0,0)"><svg width="244.43135999999998" viewBox="1.25 -35 106.75 35.4" height="81.05733155971896" data-palette-color="#dad7cd"><path d="M20.95-30.75L26.35-30.75Q27.15-28.05 28.05-25.13 28.95-22.2 29.93-19.28 30.9-16.35 31.88-13.53 32.85-10.7 33.75-8.2L33.75-8.2Q34.5-10.9 35.2-14.08 35.9-17.25 36.6-20.68 37.3-24.1 37.98-27.65 38.65-31.2 39.25-34.65L39.25-34.65 45.75-34.65Q44-25.25 41.85-16.57 39.7-7.9 37.05 0L37.05 0 31.05 0Q27.15-10.1 23.5-22.05L23.5-22.05Q21.65-16 19.75-10.55 17.85-5.1 15.95 0L15.95 0 9.95 0Q7.25-7.9 5.13-16.57 3-25.25 1.25-34.65L1.25-34.65 8-34.65Q8.6-31.25 9.28-27.7 9.95-24.15 10.68-20.73 11.4-17.3 12.15-14.1 12.9-10.9 13.65-8.2L13.65-8.2Q14.6-10.75 15.58-13.58 16.55-16.4 17.5-19.33 18.45-22.25 19.33-25.15 20.2-28.05 20.95-30.75L20.95-30.75ZM57.35 0L51.05 0 51.05-34.65 72.95-34.65 72.95-29.3 57.35-29.3 57.35-20.45 71.2-20.45 71.2-15.1 57.35-15.1 57.35 0ZM84.9-29.4L84.9-5.2Q85.45-5.15 86.35-5.13 87.25-5.1 88.8-5.1L88.8-5.1Q95.15-5.1 98.27-8.33 101.4-11.55 101.4-17.35L101.4-17.35Q101.4-23.25 98.35-26.4 95.3-29.55 88.9-29.55L88.9-29.55Q86.1-29.55 84.9-29.4L84.9-29.4ZM108-17.35L108-17.35Q108-12.85 106.59-9.53 105.2-6.2 102.62-3.98 100.05-1.75 96.42-0.68 92.8 0.4 88.4 0.4L88.4 0.4Q86.3 0.4 83.65 0.23 81 0.05 78.6-0.5L78.6-0.5 78.6-34.15Q81-34.7 83.7-34.85 86.4-35 88.5-35L88.5-35Q92.85-35 96.45-33.98 100.05-32.95 102.62-30.78 105.2-28.6 106.59-25.28 108-21.95 108-17.35Z" opacity="1" transform="matrix(1,0,0,1,0,0)" fill="#ffffff" class="wordmark-text-0" data-fill-palette-color="primary" id="text-0"></path></svg></g></svg></g></svg></g></svg></g><g transform="matrix(1,0,0,1,83.00824872456391,100.19302216501117)"><svg viewBox="0 0 78.41486255087214 78.41486255087213" height="78.41486255087213" width="78.41486255087214"><g><svg xmlns="http://www.w3.org/2000/svg" xmlns:xlink="http://www.w3.org/1999/xlink" version="1.1" x="0" y="0" viewBox="4.733000000000004 6.001 89.57900000000001 89.579" enable-background="new 0 0 100 100" xml:space="preserve" height="78.41486255087213" width="78.41486255087214" class="icon-icon-0" data-fill-palette-color="accent" id="icon-0"><path d="M49.523 6.001c-24.737 0-44.79 20.053-44.79 44.789 0 24.737 20.053 44.79 44.79 44.79 24.736 0 44.789-20.053 44.789-44.79C94.312 26.054 74.259 6.001 49.523 6.001zM43.232 49.083l-0.094 32.524c0 0 0.377 2.639-2.639 2.639-3.017 0-2.923-2.828-2.923-2.828l0.095-32.335c0 0-3.771-4.337-4.526-4.996-0.754-0.66-1.037-3.582-1.037-3.582l0.471-16.498c0 0 0-1.838 1.273-1.838 1.274 0 1.461 1.461 1.461 1.461v11.878c0 0-0.095 2.451 1.697 2.451 1.791 0 2.357-1.98 2.357-1.98V23.158c0 0 0-1.508 1.037-1.508 1.037 0 1.037 1.225 1.037 1.225l0.283 12.915c0 0 0.283 2.168 1.885 2.168s1.697-2.168 1.697-2.168V25.232c0 0 0.188-3.299 1.603-3.299 1.414 0 1.414 3.299 1.414 3.299s-0.095 14.235-0.095 15.649c0 1.414-0.943 2.923-0.943 2.923L43.232 49.083zM57.467 84.624c0 0-9.427-0.472-9.427-12.539 0-12.067 5.562-13.575 5.562-13.575V25.326c0 0 0.377-3.252 3.252-3.252s3.064 3.818 3.064 3.818V58.51c0 0 5.562 1.603 5.562 13.669S57.467 84.624 57.467 84.624z" fill="#ffffff" data-fill-palette-color="accent"></path></svg></g></svg></g><g></g></svg></g></svg></g></svg></g><g><path d="M149.545 30.848A104.535 104.535 0 0 1 245.975 30.848L239.722 30.848A98.283 98.283 0 0 0 155.798 30.848L149.545 30.848M149.545 216.352A104.535 104.535 0 0 0 245.975 216.352L239.722 216.352A98.283 98.283 0 0 1 155.798 216.352L149.545 216.352" fill="#ffffff" stroke="transparent" data-fill-palette-color="tertiary"></path></g></svg></g><defs></defs></svg><rect width="395.52" height="247.2" fill="none" stroke="none" visibility="hidden"></rect></g></svg></g></svg>