<svg xmlns="http://www.w3.org/2000/svg" version="1.1" xmlns:xlink="http://www.w3.org/1999/xlink" xmlns:svgjs="http://svgjs.dev/svgjs" width="1500" height="1500" viewBox="0 0 1500 1500"><rect width="1500" height="1500" fill="#344e41"></rect><g transform="matrix(0.6666666666666666,0,0,0.6666666666666666,249.39393939393938,438.5856950067477)"><svg viewBox="0 0 396 247" data-background-color="#344e41" preserveAspectRatio="xMidYMid meet" height="935" width="1500" xmlns="http://www.w3.org/2000/svg" xmlns:xlink="http://www.w3.org/1999/xlink"><g id="tight-bounds" transform="matrix(1,0,0,1,0.2400000000000091,-0.09999999999999432)"><svg viewBox="0 0 395.52 247.2" height="247.2" width="395.52"><g><svg></svg></g><g><svg viewBox="0 0 395.52 247.2" height="247.2" width="395.52"><g transform="matrix(1,0,0,1,75.54432,62.377608852963405)"><svg viewBox="0 0 244.43135999999998 122.44478229407318" height="122.44478229407318" width="244.43135999999998"><g><svg viewBox="0 0 244.43135999999998 122.44478229407318" height="122.44478229407318" width="244.43135999999998"><g><svg viewBox="0 0 244.43135999999998 122.44478229407318" height="122.44478229407318" width="244.43135999999998"><g><svg viewBox="0 0 244.43135999999998 122.44478229407318" height="122.44478229407318" width="244.43135999999998"><g id="textblocktransform"><svg viewBox="0 0 244.43135999999998 122.44478229407318" height="122.44478229407318" width="244.43135999999998" id="textblock"><g><svg viewBox="0 0 244.43135999999998 81.05733155971896" height="81.05733155971896" width="244.43135999999998"><g transform="matrix(1,0,0,1,0,0)"><svg width="244.43135999999998" viewBox="1.25 -35 106.75 35.4" height="81.05733155971896" data-palette-color="#dad7cd"><path d="M20.95-30.75L26.35-30.75Q27.15-28.05 28.05-25.13 28.95-22.2 29.93-19.28 30.9-16.35 31.88-13.53 32.85-10.7 33.75-8.2L33.75-8.2Q34.5-10.9 35.2-14.08 35.9-17.25 36.6-20.68 37.3-24.1 37.98-27.65 38.65-31.2 39.25-34.65L39.25-34.65 45.75-34.65Q44-25.25 41.85-16.57 39.7-7.9 37.05 0L37.05 0 31.05 0Q27.15-10.1 23.5-22.05L23.5-22.05Q21.65-16 19.75-10.55 17.85-5.1 15.95 0L15.95 0 9.95 0Q7.25-7.9 5.13-16.57 3-25.25 1.25-34.65L1.25-34.65 8-34.65Q8.6-31.25 9.28-27.7 9.95-24.15 10.68-20.73 11.4-17.3 12.15-14.1 12.9-10.9 13.65-8.2L13.65-8.2Q14.6-10.75 15.58-13.58 16.55-16.4 17.5-19.33 18.45-22.25 19.33-25.15 20.2-28.05 20.95-30.75L20.95-30.75ZM57.35 0L51.05 0 51.05-34.65 72.95-34.65 72.95-29.3 57.35-29.3 57.35-20.45 71.2-20.45 71.2-15.1 57.35-15.1 57.35 0ZM84.9-29.4L84.9-5.2Q85.45-5.15 86.35-5.13 87.25-5.1 88.8-5.1L88.8-5.1Q95.15-5.1 98.27-8.33 101.4-11.55 101.4-17.35L101.4-17.35Q101.4-23.25 98.35-26.4 95.3-29.55 88.9-29.55L88.9-29.55Q86.1-29.55 84.9-29.4L84.9-29.4ZM108-17.35L108-17.35Q108-12.85 106.59-9.53 105.2-6.2 102.62-3.98 100.05-1.75 96.42-0.68 92.8 0.4 88.4 0.4L88.4 0.4Q86.3 0.4 83.65 0.23 81 0.05 78.6-0.5L78.6-0.5 78.6-34.15Q81-34.7 83.7-34.85 86.4-35 88.5-35L88.5-35Q92.85-35 96.45-33.98 100.05-32.95 102.62-30.78 105.2-28.6 106.59-25.28 108-21.95 108-17.35Z" opacity="1" transform="matrix(1,0,0,1,0,0)" fill="#dad7cd" class="wordmark-text-0" data-fill-palette-color="primary" id="text-0"></path></svg></g></svg></g><g transform="matrix(1,0,0,1,0,100.19302216501117)"><svg viewBox="0 0 244.43135999999998 22.251760129062" height="22.251760129062" width="244.43135999999998"><g transform="matrix(1,0,0,1,0,0)"><svg width="244.43135999999998" viewBox="1.25 -38.8 433.86 39.5" height="22.251760129062" data-palette-color="#dad7cd"><path d="M20.95-30.75L26.35-30.75Q27.15-28.05 28.05-25.13 28.95-22.2 29.93-19.28 30.9-16.35 31.88-13.53 32.85-10.7 33.75-8.2L33.75-8.2Q34.5-10.9 35.2-14.08 35.9-17.25 36.6-20.68 37.3-24.1 37.98-27.65 38.65-31.2 39.25-34.65L39.25-34.65 45.75-34.65Q44-25.25 41.85-16.57 39.7-7.9 37.05 0L37.05 0 31.05 0Q27.15-10.1 23.5-22.05L23.5-22.05Q21.65-16 19.75-10.55 17.85-5.1 15.95 0L15.95 0 9.95 0Q7.25-7.9 5.13-16.57 3-25.25 1.25-34.65L1.25-34.65 8-34.65Q8.6-31.25 9.28-27.7 9.95-24.15 10.68-20.73 11.4-17.3 12.15-14.1 12.9-10.9 13.65-8.2L13.65-8.2Q14.6-10.75 15.58-13.58 16.55-16.4 17.5-19.33 18.45-22.25 19.33-25.15 20.2-28.05 20.95-30.75L20.95-30.75ZM56.8 0L50.75 0 50.75-37.8 56.8-38.8 56.8-25.85Q57.8-26.2 59.12-26.45 60.45-26.7 61.75-26.7L61.75-26.7Q64.9-26.7 66.97-25.83 69.05-24.95 70.3-23.38 71.55-21.8 72.07-19.6 72.6-17.4 72.6-14.7L72.6-14.7 72.6 0 66.55 0 66.55-13.75Q66.55-15.85 66.27-17.32 66-18.8 65.37-19.73 64.75-20.65 63.7-21.08 62.65-21.5 61.1-21.5L61.1-21.5Q59.9-21.5 58.65-21.25 57.4-21 56.8-20.8L56.8-20.8 56.8 0ZM89.05-4.25L89.05-4.25Q91.84-4.25 93.3-4.55L93.3-4.55 93.3-11.25Q92.8-11.4 91.84-11.55 90.9-11.7 89.75-11.7L89.75-11.7Q88.75-11.7 87.72-11.55 86.7-11.4 85.87-11 85.05-10.6 84.55-9.88 84.05-9.15 84.05-8.05L84.05-8.05Q84.05-5.9 85.4-5.08 86.75-4.25 89.05-4.25ZM88.55-26.8L88.55-26.8Q91.55-26.8 93.59-26.05 95.65-25.3 96.87-23.95 98.09-22.6 98.62-20.68 99.15-18.75 99.15-16.45L99.15-16.45 99.15-0.6Q97.75-0.3 94.92 0.13 92.09 0.55 88.55 0.55L88.55 0.55Q86.2 0.55 84.25 0.1 82.3-0.35 80.92-1.35 79.55-2.35 78.77-3.95 78-5.55 78-7.9L78-7.9Q78-10.15 78.87-11.7 79.75-13.25 81.25-14.23 82.75-15.2 84.72-15.63 86.7-16.05 88.84-16.05L88.84-16.05Q89.84-16.05 90.95-15.93 92.05-15.8 93.3-15.5L93.3-15.5 93.3-16.5Q93.3-17.55 93.05-18.5 92.8-19.45 92.17-20.18 91.55-20.9 90.52-21.3 89.5-21.7 87.95-21.7L87.95-21.7Q85.84-21.7 84.09-21.4 82.34-21.1 81.25-20.7L81.25-20.7 80.5-25.6Q81.65-26 83.84-26.4 86.05-26.8 88.55-26.8ZM106.24-10.4L106.24-33.05 112.29-34.05 112.29-26.15 121.59-26.15 121.59-21.1 112.29-21.1 112.29-10.45Q112.29-7.3 113.29-5.95 114.29-4.6 116.69-4.6L116.69-4.6Q118.34-4.6 119.62-4.95 120.89-5.3 121.64-5.6L121.64-5.6 122.64-0.8Q121.59-0.35 119.89 0.13 118.19 0.6 115.89 0.6L115.89 0.6Q113.09 0.6 111.22-0.15 109.34-0.9 108.24-2.33 107.14-3.75 106.69-5.78 106.24-7.8 106.24-10.4L106.24-10.4ZM127.04-38L133.14-38 133.14-34.9Q133.14-32.5 132.79-29.73 132.44-26.95 131.99-24.15L131.99-24.15 128.14-24.15Q127.64-26.95 127.34-29.7 127.04-32.45 127.04-34.95L127.04-34.95 127.04-38ZM146.99-4.35L146.99-4.35Q149.39-4.35 150.49-4.93 151.59-5.5 151.59-6.9L151.59-6.9Q151.59-8.2 150.41-9.05 149.24-9.9 146.54-10.9L146.54-10.9Q144.89-11.5 143.51-12.18 142.14-12.85 141.14-13.75 140.14-14.65 139.56-15.93 138.99-17.2 138.99-19.05L138.99-19.05Q138.99-22.65 141.64-24.73 144.29-26.8 148.84-26.8L148.84-26.8Q151.14-26.8 153.24-26.38 155.34-25.95 156.39-25.55L156.39-25.55 155.29-20.65Q154.29-21.1 152.74-21.48 151.19-21.85 149.14-21.85L149.14-21.85Q147.29-21.85 146.14-21.23 144.99-20.6 144.99-19.3L144.99-19.3Q144.99-18.65 145.21-18.15 145.44-17.65 145.99-17.23 146.54-16.8 147.44-16.38 148.34-15.95 149.64-15.5L149.64-15.5Q151.79-14.7 153.29-13.93 154.79-13.15 155.76-12.18 156.74-11.2 157.19-9.95 157.64-8.7 157.64-6.95L157.64-6.95Q157.64-3.2 154.86-1.28 152.09 0.65 146.94 0.65L146.94 0.65Q143.49 0.65 141.39 0.08 139.29-0.5 138.44-0.85L138.44-0.85 139.49-5.9Q140.84-5.35 142.71-4.85 144.59-4.35 146.99-4.35ZM181.53 0L175.23 0 175.23-34.65 197.13-34.65 197.13-29.3 181.53-29.3 181.53-20.45 195.38-20.45 195.38-15.1 181.53-15.1 181.53 0ZM225.53-13.1L225.53-13.1Q225.53-10 224.63-7.45 223.73-4.9 222.08-3.1 220.43-1.3 218.11-0.3 215.78 0.7 212.98 0.7L212.98 0.7Q210.18 0.7 207.88-0.3 205.58-1.3 203.93-3.1 202.28-4.9 201.36-7.45 200.43-10 200.43-13.1L200.43-13.1Q200.43-16.2 201.36-18.73 202.28-21.25 203.96-23.05 205.63-24.85 207.93-25.83 210.23-26.8 212.98-26.8L212.98-26.8Q215.73-26.8 218.06-25.83 220.38-24.85 222.03-23.05 223.68-21.25 224.61-18.73 225.53-16.2 225.53-13.1ZM219.33-13.1L219.33-13.1Q219.33-17 217.66-19.28 215.98-21.55 212.98-21.55L212.98-21.55Q209.98-21.55 208.31-19.28 206.63-17 206.63-13.1L206.63-13.1Q206.63-9.15 208.31-6.85 209.98-4.55 212.98-4.55L212.98-4.55Q215.98-4.55 217.66-6.85 219.33-9.15 219.33-13.1ZM247.73-25.8L246.68-20.7Q245.93-20.95 244.6-21.23 243.28-21.5 241.53-21.5L241.53-21.5Q240.53-21.5 239.4-21.3 238.28-21.1 237.83-20.95L237.83-20.95 237.83 0 231.78 0 231.78-24.9Q233.53-25.55 236.15-26.13 238.78-26.7 241.98-26.7L241.98-26.7Q242.58-26.7 243.38-26.63 244.18-26.55 244.98-26.43 245.78-26.3 246.53-26.13 247.28-25.95 247.73-25.8L247.73-25.8ZM270.17-29.4L270.17-5.2Q270.72-5.15 271.62-5.13 272.52-5.1 274.07-5.1L274.07-5.1Q280.42-5.1 283.55-8.33 286.67-11.55 286.67-17.35L286.67-17.35Q286.67-23.25 283.62-26.4 280.57-29.55 274.17-29.55L274.17-29.55Q271.37-29.55 270.17-29.4L270.17-29.4ZM293.27-17.35L293.27-17.35Q293.27-12.85 291.87-9.53 290.47-6.2 287.9-3.98 285.32-1.75 281.7-0.68 278.07 0.4 273.67 0.4L273.67 0.4Q271.57 0.4 268.92 0.23 266.27 0.05 263.87-0.5L263.87-0.5 263.87-34.15Q266.27-34.7 268.97-34.85 271.67-35 273.77-35L273.77-35Q278.12-35 281.72-33.98 285.32-32.95 287.9-30.78 290.47-28.6 291.87-25.28 293.27-21.95 293.27-17.35ZM305.97-26.15L305.97 0 299.92 0 299.92-26.15 305.97-26.15ZM306.62-33.8L306.62-33.8Q306.62-32.1 305.52-31.1 304.42-30.1 302.92-30.1L302.92-30.1Q301.37-30.1 300.27-31.1 299.17-32.1 299.17-33.8L299.17-33.8Q299.17-35.55 300.27-36.55 301.37-37.55 302.92-37.55L302.92-37.55Q304.42-37.55 305.52-36.55 306.62-35.55 306.62-33.8ZM313.67 0L313.67-25.3Q315.42-25.8 318.22-26.25 321.02-26.7 324.42-26.7L324.42-26.7Q327.62-26.7 329.77-25.83 331.92-24.95 333.19-23.38 334.47-21.8 334.99-19.58 335.52-17.35 335.52-14.7L335.52-14.7 335.52 0 329.47 0 329.47-13.75Q329.47-15.85 329.19-17.32 328.92-18.8 328.29-19.73 327.67-20.65 326.59-21.08 325.52-21.5 323.97-21.5L323.97-21.5Q322.82-21.5 321.57-21.35 320.32-21.2 319.72-21.1L319.72-21.1 319.72 0 313.67 0ZM342.92 0L342.92-25.3Q344.67-25.8 347.47-26.25 350.27-26.7 353.67-26.7L353.67-26.7Q356.87-26.7 359.02-25.83 361.17-24.95 362.44-23.38 363.72-21.8 364.24-19.58 364.77-17.35 364.77-14.7L364.77-14.7 364.77 0 358.72 0 358.72-13.75Q358.72-15.85 358.44-17.32 358.17-18.8 357.54-19.73 356.92-20.65 355.84-21.08 354.77-21.5 353.22-21.5L353.22-21.5Q352.07-21.5 350.82-21.35 349.57-21.2 348.97-21.1L348.97-21.1 348.97 0 342.92 0ZM370.71-12.95L370.71-12.95Q370.71-16.4 371.74-19 372.76-21.6 374.46-23.33 376.16-25.05 378.36-25.93 380.56-26.8 382.86-26.8L382.86-26.8Q388.26-26.8 391.29-23.45 394.31-20.1 394.31-13.45L394.31-13.45Q394.31-12.95 394.29-12.33 394.26-11.7 394.21-11.2L394.21-11.2 376.96-11.2Q377.21-8.05 379.19-6.33 381.16-4.6 384.91-4.6L384.91-4.6Q387.11-4.6 388.94-5 390.76-5.4 391.81-5.85L391.81-5.85 392.61-0.9Q392.11-0.65 391.24-0.38 390.36-0.1 389.24 0.13 388.11 0.35 386.81 0.5 385.51 0.65 384.16 0.65L384.16 0.65Q380.71 0.65 378.16-0.38 375.61-1.4 373.96-3.23 372.31-5.05 371.51-7.53 370.71-10 370.71-12.95ZM377.01-15.65L388.26-15.65Q388.26-16.9 387.91-18.03 387.56-19.15 386.89-19.98 386.21-20.8 385.24-21.28 384.26-21.75 382.91-21.75L382.91-21.75Q381.51-21.75 380.46-21.23 379.41-20.7 378.69-19.85 377.96-19 377.56-17.9 377.16-16.8 377.01-15.65L377.01-15.65ZM416.66-25.8L415.61-20.7Q414.86-20.95 413.54-21.23 412.21-21.5 410.46-21.5L410.46-21.5Q409.46-21.5 408.34-21.3 407.21-21.1 406.76-20.95L406.76-20.95 406.76 0 400.71 0 400.71-24.9Q402.46-25.55 405.09-26.13 407.71-26.7 410.91-26.7L410.91-26.7Q411.51-26.7 412.31-26.63 413.11-26.55 413.91-26.43 414.71-26.3 415.46-26.13 416.21-25.95 416.66-25.8L416.66-25.8ZM424.31-30.3L424.31-30.3Q422.56-30.3 420.96-29.88 419.36-29.45 417.61-28.5L417.61-28.5 415.91-33.15Q417.76-34.2 420.13-34.83 422.51-35.45 425.01-35.45L425.01-35.45Q428.01-35.45 429.96-34.63 431.91-33.8 433.06-32.55 434.21-31.3 434.66-29.8 435.11-28.3 435.11-26.9L435.11-26.9Q435.11-25.2 434.48-23.85 433.86-22.5 432.91-21.35 431.96-20.2 430.86-19.18 429.76-18.15 428.81-17.07 427.86-16 427.23-14.8 426.61-13.6 426.61-12.1L426.61-12.1Q426.61-11.85 426.61-11.53 426.61-11.2 426.66-10.9L426.66-10.9 421.46-10.9Q421.36-11.4 421.31-11.98 421.26-12.55 421.26-13.05L421.26-13.05Q421.26-14.7 421.81-16 422.36-17.3 423.21-18.4 424.06-19.5 425.03-20.45 426.01-21.4 426.86-22.35 427.71-23.3 428.26-24.3 428.81-25.3 428.81-26.5L428.81-26.5Q428.81-28.15 427.68-29.23 426.56-30.3 424.31-30.3ZM428.21-3.3L428.21-3.3Q428.21-1.55 427.06-0.45 425.91 0.65 424.21 0.65L424.21 0.65Q422.56 0.65 421.38-0.45 420.21-1.55 420.21-3.3L420.21-3.3Q420.21-5.05 421.38-6.18 422.56-7.3 424.21-7.3L424.21-7.3Q425.91-7.3 427.06-6.18 428.21-5.05 428.21-3.3Z" opacity="1" transform="matrix(1,0,0,1,0,0)" fill="#dad7cd" class="slogan-text-1" data-fill-palette-color="secondary" id="text-1"></path></svg></g></svg></g></svg></g></svg></g></svg></g></svg></g></svg></g><g><path d="M245.816 0c68.262 0 123.6 55.338 123.6 123.6 0 68.262-55.338 123.6-123.6 123.6-41.931 0-78.985-20.88-101.333-52.81l4.495 0c21.823 29.802 57.07 49.155 96.838 49.155 66.244 0 119.945-53.701 119.945-119.945 0-66.244-53.701-119.945-119.945-119.945-39.768 0-75.015 19.353-96.838 49.155l-4.495 0c22.347-31.93 59.402-52.81 101.333-52.81z" fill="#a3b18a" stroke="transparent" data-fill-palette-color="tertiary"></path></g></svg></g><defs></defs></svg><rect width="395.52" height="247.2" fill="none" stroke="none" visibility="hidden"></rect></g></svg></g></svg>